<svg xmlns="http://www.w3.org/2000/svg" viewBox="0 0 270 50"><g class="spotify-btn"><path class="main" d="M270 25c0 13.8-11.2 25-25 25H25C11.2 50 0 38.8 0 25S11.2 0 25 0h220c13.8 0 25 11.2 25 25z"/><path fill="#FFF" d="M40.9 13.1c-6.3 0-11.4 5.1-11.4 11.4 0 6.3 5.1 11.4 11.4 11.4 6.3 0 11.4-5.1 11.4-11.4-.1-6.3-5.2-11.4-11.4-11.4zm5.2 16.4c-.2.3-.6.4-1 .2-2.7-1.6-6-2-10-1.1-.4.1-.8-.2-.8-.5-.1-.4.2-.8.5-.8 4.3-1 8-.6 11 1.3.4.1.5.5.3.9zm1.4-3.1c-.3.4-.8.5-1.2.3-3.1-1.9-7.7-2.4-11.3-1.3-.5.1-1-.1-1.1-.6-.1-.5.1-1 .6-1.1 4.1-1.3 9.3-.6 12.8 1.5.3.2.4.8.2 1.2zm.1-3.2c-3.7-2.2-9.7-2.4-13.2-1.3-.6.2-1.2-.1-1.3-.7-.2-.6.1-1.2.7-1.3 4-1.2 10.7-1 14.9 1.5.5.3.7 1 .4 1.5-.4.4-1 .6-1.5.3zm15.6 7.4V19.9h1.9v9h4.7v1.6h-6.6zm8.1-5.3c0-3.2 2.3-5.5 5.5-5.5s5.5 2.3 5.5 5.5-2.3 5.5-5.5 5.5-5.5-2.3-5.5-5.5zm9 0c0-2.2-1.4-3.9-3.5-3.9-2.2 0-3.5 1.6-3.5 3.9 0 2.2 1.4 3.9 3.5 3.9 2.1-.1 3.5-1.7 3.5-3.9zm4.1 0c0-3.4 2.5-5.5 5.6-5.5 2.1 0 3.4 1 4.3 2.2l-1.5.9a3.5 3.5 0 0 0-2.8-1.4c-2.1 0-3.7 1.6-3.7 3.9 0 2.2 1.6 3.9 3.7 3.9 1.1 0 2-.5 2.5-1v-1.6h-3.2v-1.6h5.1v4c-1 1.2-2.5 2-4.4 2-3.1-.3-5.6-2.5-5.6-5.8zm17.6 5.3V19.9h1.9v10.7H102zm12.4 0l-5.6-7.6v7.6H107V19.9h1.9l5.5 7.4v-7.4h1.9v10.7h-1.9zm18 0l-2.1-7.9-2.1 7.9h-2l-3-10.7h2.1l2.1 8.2 2.2-8.2h1.5l2.2 8.2 2.1-8.2h2.1l-3.1 10.7h-2zm7.1 0V19.9h1.9v10.7h-1.9zm7.5 0v-9h-3.2V20h8.3v1.6h-3.2v9H147zm14.9 0v-4.7h-5.6v4.7h-1.9V19.9h1.9v4.4h5.6v-4.4h1.9v10.7h-1.9zm9.1-1.5l1.1-1.5c.7.8 1.9 1.5 3.4 1.5s2.1-.8 2.1-1.5c0-2.2-6.2-.8-6.2-4.8 0-1.8 1.5-3.1 3.9-3.1 1.6 0 3 .5 4 1.5l-1.1 1.4c-.8-.8-2-1.2-3.1-1.2s-1.8.5-1.8 1.3c0 2 6.2.8 6.2 4.7 0 1.8-1.3 3.3-4.1 3.3-2 .1-3.4-.6-4.4-1.6zm11 1.5V19.9h4.7c2.2 0 3.5 1.5 3.5 3.3 0 1.8-1.2 3.3-3.5 3.3h-2.8v4H182zm6.3-7.3c0-1-.8-1.7-1.8-1.7h-2.6V25h2.6c1 0 1.8-.7 1.8-1.7zm3.8 2c0-3.2 2.3-5.5 5.5-5.5s5.5 2.3 5.5 5.5-2.3 5.5-5.5 5.5-5.5-2.3-5.5-5.5zm9 0c0-2.2-1.4-3.9-3.5-3.9-2.2 0-3.5 1.6-3.5 3.9 0 2.2 1.4 3.9 3.5 3.9 2.1-.1 3.5-1.7 3.5-3.9zm6.7 5.3v-9h-3.2V20h8.3v1.6h-3.2v9h-1.9zm7.5 0V19.9h1.9v10.7h-1.9zm4.9 0V19.9h7.3v1.6h-5.4v2.8h5.3V26h-5.3v4.6h-1.9zm12.9 0v-4.4L229 20h2.1l2.9 4.6 2.9-4.6h2.1l-4.1 6.2v4.4h-1.8z"/></g></svg>